<?xml version="1.0" encoding="iso-8859-1"?>
<!-- Uploaded to: SVG Repo, www.svgrepo.com, Generator: SVG Repo Mixer Tools -->
<svg version="1.1" id="Layer_1" xmlns="http://www.w3.org/2000/svg" xmlns:xlink="http://www.w3.org/1999/xlink" 
	 viewBox="0 0 511.994 511.994" xml:space="preserve">
<path style="fill:#E6E9ED;" d="M448.739,386.354l-1.812-0.531c-26.483-7.094-35.437-13.922-47.217-18.406
	c-41.797-15.937-63.342-27.405-66.123-32.826c-0.094-0.203-0.172-0.406-0.25-0.609l-0.344-48.546l-88.467-1.125l-88.467,1.125
	l-0.344,48.546c-0.086,0.203-0.164,0.406-0.266,0.609c-2.781,5.421-24.327,16.89-66.123,32.826
	c-11.781,4.484-20.734,11.312-47.202,18.406l-1.812,0.531C16.219,394.323,0,416.666,0,441.883v70.107h244.525h244.509v-70.107
	C489.035,416.666,472.833,394.323,448.739,386.354z"/>
<path style="fill:#EAC6BB;" d="M382.069,191.485c0,89.372-85.201,171.619-137.543,171.619c-52.358,0-137.56-82.247-137.56-171.619
	c0-89.373,61.593-148.324,137.56-148.324S382.069,102.113,382.069,191.485z"/>
<path style="fill:#965353;" d="M329.618,28.412c-23.406-21.187-104.654-51.624-180.027,0
	C90.155,69.129,96.155,171.783,96.155,171.783s77.997,19.703,167.324-31.327c57.748-32.999,77.872,0.562,88.216,29.78
	c10.077,28.437,30.374,21.25,30.374,21.25S404.46,96.175,329.618,28.412z"/>
<path style="fill:#7F4242;" d="M303.79,126.83c8.172-0.25,15.016,1.547,20.812,4.75c11.094-40.249,32.951-51.077,42.482-53.936
	c-3.125-6.25-6.719-12.515-10.905-18.718C340.586,65.067,315.931,81.754,303.79,126.83z"/>
<g>
	<path style="fill:#434A54;" d="M255.994,437.556c0,5.891-4.773,10.672-10.663,10.672c-5.891,0-10.672-4.781-10.672-10.672
		c0-5.89,4.781-10.671,10.672-10.671C251.221,426.885,255.994,431.666,255.994,437.556z"/>
	<path style="fill:#434A54;" d="M255.994,479.993c0,5.891-4.773,10.671-10.663,10.671c-5.891,0-10.672-4.78-10.672-10.671
		s4.781-10.672,10.672-10.672C251.221,469.321,255.994,474.102,255.994,479.993z"/>
	<path style="fill:#434A54;" d="M146.778,341.715c-10.202,6.203-29.187,14.922-57.451,25.702c-0.188,0.078-0.383,0.141-0.57,0.219
		c-2.406,24.625-6.766,84.607,0.203,144.355h99.708c-23.608-97.465-21.812-175.338-21.812-175.338L146.778,341.715z"/>
	<path style="fill:#434A54;" d="M342.211,341.715c10.188,6.203,29.187,14.922,57.437,25.702c0.203,0.078,0.391,0.141,0.594,0.219
		c2.391,24.625,6.75,84.607-0.219,144.355h-99.701c23.609-97.465,21.812-175.338,21.812-175.338L342.211,341.715z"/>
</g>
<path style="fill:#DA4453;" d="M335.618,317.935c-18.656-3.031-91.1,29.983-91.1,29.983s-68.319-37.468-91.092-29.968
	c-22.772,7.484-18.64,101.888,0,104.919c18.648,3.031,91.092-29.983,91.092-29.983s68.318,37.468,91.1,29.968
	C358.397,415.354,354.258,320.95,335.618,317.935z"/>
<path style="fill:#ED5564;" d="M277.994,363.308c0,19.25-14.991,41.953-33.476,41.953s-33.469-22.703-33.469-41.953
	c0-19.265,14.984-27.779,33.469-27.779C263.003,335.529,277.994,344.043,277.994,363.308z"/>
<polygon style="fill:#FC6E51;" points="511.987,511.991 383.991,511.991 383.991,363.104 415.99,319.997 415.99,255.999 
	479.989,255.999 479.989,319.997 511.987,363.104 "/>
<rect x="383.994" y="383.997" style="fill:#656D78;" width="128" height="85.33"/>
<path style="fill:#E9573F;" d="M479.989,277.326H415.99c-5.89,0-10.655-4.766-10.655-10.656c0-5.905,4.766-10.67,10.655-10.67
	h63.999c5.89,0,10.655,4.765,10.655,10.67C490.644,272.56,485.879,277.326,479.989,277.326z"/>
<path style="fill:#E6E9ED;" d="M469.333,437.321h-42.687c-5.875,0-10.656-4.765-10.656-10.655c0-5.906,4.781-10.672,10.656-10.672
	h42.687c5.875,0,10.656,4.766,10.656,10.672C479.989,432.557,475.208,437.321,469.333,437.321z"/>
<path style="fill:#EAC6BB;" d="M382.069,191.485c0,89.372-85.201,171.619-137.543,171.619c-52.358,0-137.56-82.247-137.56-171.619
	c0-89.373,61.593-148.324,137.56-148.324S382.069,102.113,382.069,191.485z"/>
<path style="fill:#965353;" d="M329.618,28.412c-23.406-21.187-104.654-51.624-180.027,0
	C90.155,69.129,96.155,171.783,96.155,171.783s77.997,19.703,167.324-31.327c57.748-32.999,77.872,0.562,88.216,29.78
	c10.077,28.437,30.374,21.25,30.374,21.25S404.46,96.175,329.618,28.412z"/>
<path style="fill:#7F4242;" d="M303.79,126.83c8.172-0.25,15.016,1.547,20.812,4.75c11.094-40.249,32.951-51.077,42.482-53.936
	c-3.125-6.25-6.719-12.515-10.905-18.718C340.586,65.067,315.931,81.754,303.79,126.83z"/>
</svg>